<?xml version="1.0" encoding="UTF-8"?>
<svg id="Layer_2" data-name="Layer 2" xmlns="http://www.w3.org/2000/svg" viewBox="0 0 107.44 109.17">
  <defs>
    <style>
      .cls-1 {
        fill: #1699d2;
      }

      .cls-2 {
        fill: #2cafe2;
      }

      .cls-3 {
        fill: #21a7de;
      }

      .cls-4 {
        fill: #2bafe3;
      }

      .cls-5 {
        fill: #1395cd;
      }

      .cls-6 {
        fill: #1da3db;
      }
    </style>
  </defs>
  <g id="Layer_1-2" data-name="Layer 1">
    <g id="Logo_Netacuv" data-name="Logo Netacuv">
      <g id="Symbol">
        <path class="cls-4" d="M35.37,62.79c-.1,5.29.51,11.45-.18,16.58-1.94,14.39-22.01,26.03-34.78,29.79.95-26.61-1.28-54.12,0-80.63.44-.36,1.18-.83,1.47-.56,9.51,8.69,19.94,18.87,28.84,28.25,2.33,1.75,3.88,3.94,4.66,6.56Z"/>
        <path class="cls-2" d="M107.44,0v72.07l-33.22-31.35c-1.12-.87-.95-1.99-1.07-3.21-1.52-15.53,5.47-23.75,18.12-31.21,4.56-2.69,10.89-6.06,16.18-6.3Z"/>
        <path class="cls-5" d="M73.19,46.38l1.43,2.84-.05,34.13c-.74,2.87-4.45,6.18-7.08,4.42-7.95-7.53-15.75-15.15-23.55-22.83l-.27-1.69c2.59-2.13,2.6-3.29.03-3.47-5.68-.39-7.58-1.08-5.03-6.62-1.78-.97-2.87-2.27-3.3-3.91l-1.42-.77c-1.31-8.47-.94-31.08,12.12-28.48,9.25,8.58,18.05,17.67,27.11,26.4Z"/>
        <path class="cls-6" d="M67.48,87.77c2-1.04,5.2-2.06,5.69-4.66l.02-36.73c8.3,8,24.33,20.27,30.68,28.9,9.98,13.58-4.31,32.01-19.26,27.11-6.4-2.1-12.36-10.1-17.13-14.62Z"/>
        <path class="cls-3" d="M46.07,19.98c-1.51,1.6-3.66,1.13-5.39,2.1-6.97,3.92-5.16,20.19-5.31,27.15,2.47,2.57,2.39,9.23-2.05,8.1-1.92-.49-26.56-25.42-27.89-28.04-1.87-3.69-2.31-10.29-1.46-14.31,2.91-4.4,9.4-9.23,14.69-9.93,12.71-1.68,19.18,7.29,27.41,14.92Z"/>
        <path class="cls-1" d="M3.97,14.98c1.92,5.37.29,12.02,4.63,16.42l25.7,24.96c1.62.3.98-.71,1.06-1.77.13-1.77-.04-3.59,0-5.36,4.91,3.18,6.25,2.68,2.85,8.56,6.42.4,12.9.79,5.71,7.14-2.44-2.4-5.23-4.53-7.5-7.13-1.75-.73-1.04,4.1-1.06,4.99L.41,28.54c.26-5.43.46-8.85,3.57-13.56Z"/>
      </g>
    </g>
  </g>
</svg>